<svg xmlns="http://www.w3.org/2000/svg" viewBox="0 0 597.28 111.72">
  <defs>
    <style>
      .cls-1 {
        fill: #fdf0d5;
        stroke: #669bbc;
        stroke-miterlimit: 10;
        stroke-width: 2px;
      }

      .cls-2 {
        fill: #0c3148;
      }

      .cls-3 {
        isolation: isolate;
      }

      .cls-4 {
        fill: #669bbc;
      }
    </style>
  </defs>
  <g id="Livello_2" data-name="Livello 2">
    <g id="Livello_1-2" data-name="Livello 1">
      <path class="cls-1" d="M1,1V110.72H5.52c0-2.67,2.92-4.83,6.53-4.83s6.54,2.16,6.54,4.83H29.4c0-2.67,2.92-4.83,6.53-4.83s6.54,2.16,6.54,4.83H53.28c0-2.67,2.93-4.83,6.54-4.83s6.53,2.16,6.53,4.83H77.16c0-2.67,2.93-4.83,6.54-4.83s6.53,2.16,6.53,4.83h10.82c0-2.67,2.92-4.83,6.53-4.83s6.54,2.16,6.54,4.83h10.81c0-2.67,2.92-4.83,6.53-4.83s6.54,2.16,6.54,4.83h10.81c0-2.67,2.93-4.83,6.53-4.83s6.54,2.16,6.54,4.83h10.81c0-2.67,2.93-4.83,6.54-4.83s6.53,2.16,6.53,4.83h10.81c0-2.67,2.93-4.83,6.54-4.83s6.53,2.16,6.53,4.83h10.82c0-2.67,2.92-4.83,6.53-4.83s6.54,2.16,6.54,4.83h10.81c0-2.67,2.92-4.83,6.53-4.83s6.54,2.16,6.54,4.83h10.81c0-2.67,2.93-4.83,6.54-4.83s6.53,2.16,6.53,4.83H292.1c0-2.67,2.93-4.83,6.54-4.83s6.53,2.16,6.53,4.83H316c0-2.67,2.92-4.83,6.53-4.83s6.54,2.16,6.54,4.83h10.81c0-2.67,2.92-4.83,6.53-4.83s6.54,2.16,6.54,4.83h10.81c0-2.67,2.93-4.83,6.53-4.83s6.54,2.16,6.54,4.83h10.81c0-2.67,2.93-4.83,6.54-4.83s6.53,2.16,6.53,4.83h10.81c0-2.67,2.93-4.83,6.54-4.83s6.53,2.16,6.53,4.83H435.4c0-2.67,2.92-4.83,6.53-4.83s6.54,2.16,6.54,4.83h10.81c0-2.67,2.92-4.83,6.53-4.83s6.54,2.16,6.54,4.83h10.81c0-2.67,2.93-4.83,6.54-4.83s6.53,2.16,6.53,4.83H507c0-2.67,2.93-4.83,6.54-4.83s6.53,2.16,6.53,4.83h10.81c0-2.67,2.93-4.83,6.54-4.83s6.53,2.16,6.53,4.83h10.82c0-2.67,2.92-4.83,6.53-4.83s6.54,2.16,6.54,4.83h10.81c0-2.67,2.93-4.83,6.53-4.83s6.54,2.16,6.54,4.83h4.52V1Z"/>
      <g id="Livello_2-2" data-name="Livello 2">
        <g id="Livello_1-2-2" data-name="Livello 1-2">
          <g>
            <g>
              <path class="cls-2" d="M218.29,81.23h-9.46a4,4,0,0,1-2.77-.8,2.82,2.82,0,0,1-.92-2.16,2.76,2.76,0,0,1,.94-2.15,4,4,0,0,1,2.66-.79V59.77a3.87,3.87,0,0,1-2.68-.81,3,3,0,0,1-.09-4.22l.09-.09a4,4,0,0,1,2.77-.81h10a10.66,10.66,0,0,1,7.55,2.63,8.76,8.76,0,0,1,1.87,10.45,8.92,8.92,0,0,1-2.42,2.79A11.15,11.15,0,0,1,218,72.36h-3.33v3h3.65a4,4,0,0,1,2.76.8,2.85,2.85,0,0,1,.93,2.19,2.79,2.79,0,0,1-.93,2.11A4,4,0,0,1,218.29,81.23Zm-9.46-4.36a2.71,2.71,0,0,0-1.73.41,1.19,1.19,0,0,0-.43,1v.06a1.29,1.29,0,0,0,.42,1,2.65,2.65,0,0,0,1.74.4h9.46a2.61,2.61,0,0,0,1.73-.4,1.27,1.27,0,0,0,.42-1,1.32,1.32,0,0,0-.42-1,2.61,2.61,0,0,0-1.73-.4h-5.18v-6H218a9.63,9.63,0,0,0,6.93-2.33,7.38,7.38,0,0,0,2-2.3,7.22,7.22,0,0,0-1.57-8.6,9.18,9.18,0,0,0-6.5-2.22h-10a2.74,2.74,0,0,0-1.71.38l-.07.07a1.44,1.44,0,0,0,.06,2,2.61,2.61,0,0,0,1.72.4h1.45V76.87Zm-2.76-22.22h0ZM217.92,68H213.1l0-9.76h5.77a6.4,6.4,0,0,1,4.37,1.33,4.17,4.17,0,0,1,1.63,3.29,4.58,4.58,0,0,1-2,3.72A7.94,7.94,0,0,1,217.92,68Zm-3.28-1.53h3.28A6.47,6.47,0,0,0,222,65.33a3,3,0,0,0,1.38-2.48,2.68,2.68,0,0,0-1.07-2.08,5,5,0,0,0-3.4-1h-4.24Z"/>
              <path class="cls-2" d="M278.4,81.23H257.07a4.07,4.07,0,0,1-2.77-.8,2.84,2.84,0,0,1-.92-2.19,2.74,2.74,0,0,1,.94-2.12,4,4,0,0,1,2.66-.79V59.77A3.93,3.93,0,0,1,254.3,59a3,3,0,0,1-.07-4.24l0,0a4,4,0,0,1,2.8-.84h20.37v7.44a4,4,0,0,1-.79,2.73,2.73,2.73,0,0,1-2.12.92,2.83,2.83,0,0,1-2.16-.9,3.94,3.94,0,0,1-.81-2.76v-1.5h-8.68v4.77h2.32a3.85,3.85,0,0,1,.43-1.84,2.83,2.83,0,0,1,2.52-1.37,2.77,2.77,0,0,1,2.14.92,4,4,0,0,1,.8,2.76v5a4.59,4.59,0,0,1-.41,2.28l-.05.08a3,3,0,0,1-4.07.91,3,3,0,0,1-.95-1,3.89,3.89,0,0,1-.41-1.85l-2.32,0v4.88h9.61v-1.6A4.06,4.06,0,0,1,273.3,71a3,3,0,0,1,4.19-.11l.09.09a4,4,0,0,1,.82,2.78Zm-21.33-4.36a2.71,2.71,0,0,0-1.73.41,1.24,1.24,0,0,0-.43,1,1.32,1.32,0,0,0,.42,1,2.82,2.82,0,0,0,1.74.4h19.79v-6a2.71,2.71,0,0,0-.41-1.73l0,0a1.4,1.4,0,0,0-2,0,2.77,2.77,0,0,0-.4,1.71v3.14H261.35v-8l5.37,0v.76a4.23,4.23,0,0,0,.19,1.79,1.39,1.39,0,0,0,.47.49,1.42,1.42,0,0,0,1.93-.39,2.88,2.88,0,0,0,.24-1.48V65a2.63,2.63,0,0,0-.4-1.73,1.3,1.3,0,0,0-1-.42h-.05a1.36,1.36,0,0,0-1.19.65,4.09,4.09,0,0,0-.21,1.8v.77h-5.37V58.24H273.1v3a2.6,2.6,0,0,0,.4,1.72,1.26,1.26,0,0,0,1,.4h.06a1.17,1.17,0,0,0,.95-.4,2.56,2.56,0,0,0,.41-1.71v-5.9H257.07a2.59,2.59,0,0,0-1.74.41h0a1.45,1.45,0,0,0,0,2,2.78,2.78,0,0,0,1.72.4h1.45V76.87Z"/>
              <path class="cls-2" d="M294.81,81.23H284.56a4,4,0,0,1-2.76-.8,3,3,0,0,1-.1-4.21l.08-.08a4,4,0,0,1,2.78-.81h2.15V59.77h-3.19v3.37a4,4,0,0,1-.81,2.76,3,3,0,0,1-4.2.09l-.07-.07a4,4,0,0,1-.83-2.78v-9.3h24.17v9.3a4.06,4.06,0,0,1-.8,2.76,3,3,0,0,1-4.3,0,4,4,0,0,1-.8-2.76V59.77h-3.24V75.33h2.17a4.11,4.11,0,0,1,2.77.8,2.84,2.84,0,0,1,.92,2.19,2.78,2.78,0,0,1-.92,2.11A4,4,0,0,1,294.81,81.23Zm-10.25-4.36a2.61,2.61,0,0,0-1.73.4,1.43,1.43,0,0,0,0,2,2.57,2.57,0,0,0,1.71.39h10.25a2.67,2.67,0,0,0,1.74-.4,1.34,1.34,0,0,0,.42-1,1.32,1.32,0,0,0-.42-1,2.63,2.63,0,0,0-1.74-.4H291.1V58.24h6.32v4.9a2.77,2.77,0,0,0,.4,1.73,1.29,1.29,0,0,0,1,.42h.05a1.29,1.29,0,0,0,1-.42,2.81,2.81,0,0,0,.4-1.73V55.38H279.15v7.76a2.55,2.55,0,0,0,.41,1.73v0a1.43,1.43,0,0,0,2,0,2.57,2.57,0,0,0,.39-1.71v-4.9h6.27V76.87Z"/>
              <path class="cls-2" d="M322.37,81.23H301v-7.5a3.94,3.94,0,0,1,.81-2.76l.08-.09a3,3,0,0,1,4.2.07,4,4,0,0,1,.83,2.78v1.6h9.64V70.45l-2.32,0a3.75,3.75,0,0,1-.42,1.87,3.14,3.14,0,0,1-.88.9,3,3,0,0,1-2.24.42,3,3,0,0,1-1.88-1.28l-.05-.09a4.49,4.49,0,0,1-.42-2.28V65a4,4,0,0,1,.81-2.76,2.72,2.72,0,0,1,2.14-.92,2.85,2.85,0,0,1,2.55,1.4,3.64,3.64,0,0,1,.4,1.81h2.3V59.77h-8.68v1.5A3.91,3.91,0,0,1,307,64a2.84,2.84,0,0,1-2.16.9,2.74,2.74,0,0,1-2.16-.92,4,4,0,0,1-.79-2.73V53.84h20.43a4.07,4.07,0,0,1,2.77.8l.1.11a3,3,0,0,1-.07,4.2,3.94,3.94,0,0,1-2.71.82V75.35a4,4,0,0,1,2.68.81,2.74,2.74,0,0,1,.95,2.12,2.77,2.77,0,0,1-.93,2.15A4,4,0,0,1,322.37,81.23Zm-19.86-1.54h19.86a2.65,2.65,0,0,0,1.74-.4,1.31,1.31,0,0,0,.42-1,1.2,1.2,0,0,0-.43-1,2.54,2.54,0,0,0-1.74-.43H320.9V58.24h1.45a2.59,2.59,0,0,0,1.75-.42,1.42,1.42,0,0,0,0-2l-.05-.06a2.75,2.75,0,0,0-1.73-.39h-18.9v5.9a2.56,2.56,0,0,0,.41,1.71,1.21,1.21,0,0,0,1,.4h.08a1.27,1.27,0,0,0,1-.4,2.57,2.57,0,0,0,.4-1.72v-3h11.76v7.84H312.7v-.77a4.13,4.13,0,0,0-.19-1.76,1.32,1.32,0,0,0-1.21-.69h-.05a1.25,1.25,0,0,0-1,.42,2.57,2.57,0,0,0-.41,1.73v5.1a3,3,0,0,0,.24,1.47,1.5,1.5,0,0,0,.88.58,1.46,1.46,0,0,0,1.08-.21,1.29,1.29,0,0,0,.43-.44,4.07,4.07,0,0,0,.2-1.81v-.76l5.38,0v8H305.35V73.73a2.5,2.5,0,0,0-.41-1.72,1.43,1.43,0,0,0-2,0l0,0a2.6,2.6,0,0,0-.39,1.71Z"/>
              <path class="cls-2" d="M337.54,81.89a14.65,14.65,0,0,1-3.67-.46,15.69,15.69,0,0,1-3-1.11,5.17,5.17,0,0,1-.67.55l-.08,0a2.6,2.6,0,0,1-1.22.28,2.84,2.84,0,0,1-2.18-.92,4,4,0,0,1-.81-2.75V74.58a4,4,0,0,1,.81-2.76,3,3,0,0,1,3.9-.38l.08,0a3.34,3.34,0,0,1,1,1.76,3,3,0,0,0,.41,1,6.05,6.05,0,0,0,1.89,1.13,7.88,7.88,0,0,0,3.17.64,7.41,7.41,0,0,0,4.38-1.23,1.68,1.68,0,0,0,.85-1.43,1.59,1.59,0,0,0-.39-1,3.31,3.31,0,0,0-1.51-1,29.32,29.32,0,0,0-3.71-.85,20.92,20.92,0,0,1-5.61-1.66A7.93,7.93,0,0,1,328,65.89a7.64,7.64,0,0,1-1.18-4.09,8,8,0,0,1,2.9-6.08A10.6,10.6,0,0,1,337,53.19a12.71,12.71,0,0,1,3.31.4,9.45,9.45,0,0,1,2.34.93,3.22,3.22,0,0,1,1.75-.64,2.8,2.8,0,0,1,2.16.92,4,4,0,0,1,.8,2.74v3.27a4,4,0,0,1-.8,2.77,2.93,2.93,0,0,1-4,.23l0,0a3.18,3.18,0,0,1-.93-1.91,3.12,3.12,0,0,0-.45-1.17,4,4,0,0,0-1.52-1.11,6.2,6.2,0,0,0-2.55-.46H337a5.11,5.11,0,0,0-3.25,1,2.29,2.29,0,0,0-1.06,1.66,1.87,1.87,0,0,0,.4,1.09,3,3,0,0,0,1.3.93,30.55,30.55,0,0,0,4,.92,27.42,27.42,0,0,1,5.33,1.5A8,8,0,0,1,347,68.92a7.47,7.47,0,0,1,1.32,4.46,7.16,7.16,0,0,1-2.56,5.77,12.27,12.27,0,0,1-8.2,2.74Zm-7-3.53.58.32a13.34,13.34,0,0,0,6.49,1.68A10.85,10.85,0,0,0,344.8,78a5.63,5.63,0,0,0,2-4.56v-.06a5.91,5.91,0,0,0-1.05-3.57,6.29,6.29,0,0,0-2.67-2.2,24.86,24.86,0,0,0-5-1.4,32,32,0,0,1-4.2-1,4.51,4.51,0,0,1-2-1.44,3.44,3.44,0,0,1-.73-2,3.72,3.72,0,0,1,1.68-2.9,6.72,6.72,0,0,1,4.23-1.26,7.71,7.71,0,0,1,3.14.58,5.45,5.45,0,0,1,2.15,1.59l0,.06a4.72,4.72,0,0,1,.72,1.84,1.66,1.66,0,0,0,.46,1,1.47,1.47,0,0,0,.88.31h0a1.34,1.34,0,0,0,1-.42,2.65,2.65,0,0,0,.41-1.74V57.54a2.58,2.58,0,0,0-.41-1.71,1.29,1.29,0,0,0-1-.42,1.7,1.7,0,0,0-1.14.57l-.44.5-.56-.36a7.72,7.72,0,0,0-2.39-1,11.5,11.5,0,0,0-2.92-.35,9.16,9.16,0,0,0-6.32,2.16,6.4,6.4,0,0,0-2.36,4.92,5.88,5.88,0,0,0,.95,3.26,6.43,6.43,0,0,0,2.59,2.37A19.22,19.22,0,0,0,337.07,69a28.93,28.93,0,0,1,3.92.9,4.85,4.85,0,0,1,2.23,1.4,3.13,3.13,0,0,1,.77,2A3.18,3.18,0,0,1,342.42,76a8.64,8.64,0,0,1-5.23,1.47,9,9,0,0,1-3.71-.74,7.59,7.59,0,0,1-2.42-1.48l-.11-.13a4.22,4.22,0,0,1-.69-1.56,1.87,1.87,0,0,0-.53-.91,1.49,1.49,0,0,0-1.88.2,2.88,2.88,0,0,0-.38,1.7v2.94a2.5,2.5,0,0,0,.41,1.71,1.26,1.26,0,0,0,1,.42h.06a.9.9,0,0,0,.46-.09,3,3,0,0,0,.71-.67Z"/>
              <path class="cls-2" d="M364.65,81.23H354.4a4,4,0,0,1-2.77-.8,2.86,2.86,0,0,1-.92-2.16,2.76,2.76,0,0,1,.93-2.14,4,4,0,0,1,2.76-.8h2.15V59.77h-3.2v3.37a4,4,0,0,1-.8,2.76,2.75,2.75,0,0,1-2.18.92,2.7,2.7,0,0,1-2.11-.92,4,4,0,0,1-.8-2.76v-9.3h24.17v9.3a4.06,4.06,0,0,1-.81,2.76,3,3,0,0,1-4.3,0,4.06,4.06,0,0,1-.8-2.77V59.77h-3.24V75.33h2.17a4,4,0,0,1,2.76.8,2.82,2.82,0,0,1,.93,2.16,2.74,2.74,0,0,1-.94,2.14A3.93,3.93,0,0,1,364.65,81.23ZM354.4,76.87a2.67,2.67,0,0,0-1.74.4,1.27,1.27,0,0,0-.41,1v.06a1.25,1.25,0,0,0,.42,1,2.61,2.61,0,0,0,1.73.4h10.25a2.63,2.63,0,0,0,1.73-.4,1.25,1.25,0,0,0,.42-1v-.06a1.29,1.29,0,0,0-.42-1,2.63,2.63,0,0,0-1.73-.4h-3.71V58.24h6.32v4.89a2.8,2.8,0,0,0,.41,1.75,1.27,1.27,0,0,0,1,.41h.05a1.27,1.27,0,0,0,1-.42,2.8,2.8,0,0,0,.41-1.73V55.38H349v7.76a2.5,2.5,0,0,0,.41,1.72,1.22,1.22,0,0,0,1,.43,1.28,1.28,0,0,0,1-.42,2.53,2.53,0,0,0,.41-1.73v-4.9h6.27V76.87Z"/>
              <path class="cls-2" d="M388.45,81.23H375.26a4,4,0,0,1-2.77-.8,2.81,2.81,0,0,1-.92-2.16,2.76,2.76,0,0,1,.93-2.14,4,4,0,0,1,2.76-.8h3.64V59.77h-3.64a4,4,0,0,1-2.77-.81,3,3,0,0,1-.17-4.13l0-.06.15-.12a4,4,0,0,1,2.76-.81h13.19a4,4,0,0,1,2.76.8,3,3,0,0,1,0,4.33,4,4,0,0,1-2.75.8h-3.65V75.33h3.64a4,4,0,0,1,2.76.8,2.82,2.82,0,0,1,.93,2.16,2.76,2.76,0,0,1-.93,2.14A4,4,0,0,1,388.45,81.23Zm-13.19-4.36a2.59,2.59,0,0,0-1.73.4,1.18,1.18,0,0,0-.42,1v.06a1.25,1.25,0,0,0,.42,1,2.59,2.59,0,0,0,1.73.4h13.19a2.63,2.63,0,0,0,1.73-.4,1.25,1.25,0,0,0,.42-1v-.06a1.29,1.29,0,0,0-.42-1,2.63,2.63,0,0,0-1.73-.4h-5.18V58.24h5.19a2.58,2.58,0,0,0,1.72-.41,1.24,1.24,0,0,0,.42-1v-.07a1.21,1.21,0,0,0-.41-1,2.59,2.59,0,0,0-1.74-.41H375.26a3,3,0,0,0-1.71.38l-.06.07a1.43,1.43,0,0,0-.39,1,1.47,1.47,0,0,0,.44,1,2.61,2.61,0,0,0,1.72.4h5.17V76.87ZM372.5,54.65h0Z"/>
              <path class="cls-2" d="M249.77,81.13h-6.61a4,4,0,0,1-2.77-.8,2.84,2.84,0,0,1-.92-2.16,2.79,2.79,0,0,1,.92-2.13,4.06,4.06,0,0,1,2.77-.81h.8v-4l-3.37,0c-2.16,1.12-5,4.32-8.32,9.52l-.22.35h-3a3.91,3.91,0,0,1-2.76-.82,2.8,2.8,0,0,1-.9-2.13,2.89,2.89,0,0,1,1.3-2.49,4.24,4.24,0,0,1,2.18-.47c1-1.56,1.84-2.74,2.47-3.51a29.26,29.26,0,0,1,2.26-2.47,11.39,11.39,0,0,1-2.91-2.67,7,7,0,0,1-1.35-4.18,8,8,0,0,1,2.84-6.15c1.83-1.64,4.41-2.47,7.67-2.47h9.87a4,4,0,0,1,2.77.8l.07.08a3,3,0,0,1-.06,4.22,3.93,3.93,0,0,1-2.69.83V75.23a3.88,3.88,0,0,1,2.66.8,2.74,2.74,0,0,1,.94,2.14,2.84,2.84,0,0,1-.92,2.16A4,4,0,0,1,249.77,81.13Zm-6.61-4.36a2.55,2.55,0,0,0-1.74.41,1.42,1.42,0,0,0,0,2,2.59,2.59,0,0,0,1.73.41h6.61a2.53,2.53,0,0,0,1.73-.41,1.24,1.24,0,0,0,.42-1v0a1.25,1.25,0,0,0-.42-1,2.57,2.57,0,0,0-1.73-.41h-1.45V58.14h1.45a2.53,2.53,0,0,0,1.73-.41,1.45,1.45,0,0,0,0-2l0,0a2.57,2.57,0,0,0-1.71-.39H239.9a9.69,9.69,0,0,0-6.66,2.1,6.44,6.44,0,0,0-2.31,5,5.47,5.47,0,0,0,1,3.27,9.59,9.59,0,0,0,3.31,2.74l1,.5-.83.76a25.7,25.7,0,0,0-2.88,3c-.63.78-1.5,2-2.59,3.72l-.22.36h-.42a3.92,3.92,0,0,0-1.76.21,1.37,1.37,0,0,0-.62,1.18v.06a1.31,1.31,0,0,0,.41,1,2.55,2.55,0,0,0,1.72.4h2.11c3.54-5.43,6.45-8.63,8.87-9.79l.16-.08,5.26,0v7Zm-2-9.87a10.08,10.08,0,0,1-3.47-.62,7.15,7.15,0,0,1-3-1.85,3.43,3.43,0,0,1-.88-2.14v-.08a3.77,3.77,0,0,1,1.62-2.87,6.81,6.81,0,0,1,4.3-1.2h5.79V66.9h-4.35Zm-5.83-4.64a1.94,1.94,0,0,0,.5,1.16,5.59,5.59,0,0,0,2.4,1.42,8.19,8.19,0,0,0,3.1.52H244V59.68H239.7a5.31,5.31,0,0,0-3.36.88l-.05,0A2.19,2.19,0,0,0,235.32,62.26Z"/>
            </g>
            <g class="cls-3">
              <path class="cls-4" d="M211.77,43.28v4.44h1.28a2.7,2.7,0,0,1,1.81.49,1.64,1.64,0,0,1,.55,1.29,1.6,1.6,0,0,1-.55,1.26,2.65,2.65,0,0,1-1.81.5h-5.37a2.65,2.65,0,0,1-1.81-.5,1.74,1.74,0,0,1,0-2.55,2.71,2.71,0,0,1,1.8-.49h.56V33.9h-.56a2.7,2.7,0,0,1-1.81-.49,1.64,1.64,0,0,1-.55-1.29,1.62,1.62,0,0,1,.55-1.28,2.65,2.65,0,0,1,1.81-.49l8,0a8.33,8.33,0,0,1,5.8,1.85,5.81,5.81,0,0,1,2.06,4.51,5.06,5.06,0,0,1-1,3,8.36,8.36,0,0,1-2.92,2.41,21.84,21.84,0,0,1,2.4,2.51c.53.66,1.24,1.68,2.14,3.07A3.62,3.62,0,0,1,226,48a1.7,1.7,0,0,1,.78,1.5,1.62,1.62,0,0,1-.54,1.26,2.63,2.63,0,0,1-1.81.5h-2q-4.29-6.65-7.12-8Zm0-3.54h2.76a7.61,7.61,0,0,0,2.74-.46A5.31,5.31,0,0,0,219.45,38,2.21,2.21,0,0,0,220,36.6a2.41,2.41,0,0,0-1.07-1.85,4.9,4.9,0,0,0-3.12-.85h-4Z"/>
              <path class="cls-4" d="M251,33.9v10a7.51,7.51,0,0,1-2.35,5.57A7.83,7.83,0,0,1,243,51.77a8.25,8.25,0,0,1-3.07-.57,8.14,8.14,0,0,1-2.59-1.7,9.43,9.43,0,0,1-1.78-2.34,7,7,0,0,1-.64-3.25v-10a2.34,2.34,0,0,1-1.65-.5,1.66,1.66,0,0,1-.54-1.28,1.61,1.61,0,0,1,.54-1.27,2.7,2.7,0,0,1,1.82-.48l4.64,0a2.68,2.68,0,0,1,1.82.49,1.65,1.65,0,0,1,.54,1.28,1.67,1.67,0,0,1-.54,1.29,2.73,2.73,0,0,1-1.82.49h-1.28V44.22a3.7,3.7,0,0,0,1.32,2.8A4.53,4.53,0,0,0,243,48.24a4.86,4.86,0,0,0,2.33-.59,4.72,4.72,0,0,0,1.77-1.7,3.24,3.24,0,0,0,.44-1.73V33.9h-1.28a2.73,2.73,0,0,1-1.82-.49,1.67,1.67,0,0,1-.54-1.29,1.65,1.65,0,0,1,.54-1.28,2.68,2.68,0,0,1,1.82-.49l4.64,0a2.71,2.71,0,0,1,1.81.48,1.59,1.59,0,0,1,.55,1.27,1.66,1.66,0,0,1-.54,1.28A2.34,2.34,0,0,1,251,33.9Z"/>
              <path class="cls-4" d="M263.28,47.72V33.9h-.55a2.73,2.73,0,0,1-1.82-.49,1.68,1.68,0,0,1-.55-1.29,1.66,1.66,0,0,1,.55-1.28,2.68,2.68,0,0,1,1.82-.49h8.86a7.3,7.3,0,0,1,5.1,1.76,5.54,5.54,0,0,1,1.93,4.2,5.27,5.27,0,0,1-.45,2.17,5.74,5.74,0,0,1-1.36,1.88,7.4,7.4,0,0,1,2.51,2.34,5.64,5.64,0,0,1,.83,3,5.33,5.33,0,0,1-.6,2.5,4.26,4.26,0,0,1-1.1,1.4,7.41,7.41,0,0,1-2.16,1.18,9.66,9.66,0,0,1-3.19.46H262.73a2.68,2.68,0,0,1-1.82-.5,1.74,1.74,0,0,1,0-2.55,2.72,2.72,0,0,1,1.81-.49ZM266.81,39h3.88A5.55,5.55,0,0,0,274.15,38a2.12,2.12,0,0,0,.93-1.75,2,2,0,0,0-.87-1.63,4.48,4.48,0,0,0-2.8-.7h-4.6Zm0,8.68h6.1a5.34,5.34,0,0,0,3-.64,1.6,1.6,0,0,0,.67-1.37,2.8,2.8,0,0,0-1.33-2.11,6.07,6.07,0,0,0-3.81-1h-4.67Z"/>
              <path class="cls-4" d="M294.38,43.28v4.44h1.28a2.73,2.73,0,0,1,1.82.49A1.67,1.67,0,0,1,298,49.5a1.62,1.62,0,0,1-.54,1.26,2.68,2.68,0,0,1-1.82.5H290.3a2.68,2.68,0,0,1-1.82-.5,1.63,1.63,0,0,1-.54-1.28,1.62,1.62,0,0,1,.55-1.27,2.74,2.74,0,0,1,1.81-.49h.55V33.9h-.55a2.73,2.73,0,0,1-1.82-.49,1.67,1.67,0,0,1-.54-1.29,1.65,1.65,0,0,1,.54-1.28,2.68,2.68,0,0,1,1.82-.49l8,0a8.37,8.37,0,0,1,5.8,1.85,5.85,5.85,0,0,1,2.06,4.51,5.07,5.07,0,0,1-1,3,8.23,8.23,0,0,1-2.91,2.41,22.72,22.72,0,0,1,2.39,2.51c.53.66,1.24,1.68,2.14,3.07a3.67,3.67,0,0,1,1.78.28,1.71,1.71,0,0,1,.77,1.5,1.65,1.65,0,0,1-.53,1.26,2.65,2.65,0,0,1-1.81.5h-2q-4.29-6.65-7.12-8Zm0-3.54h2.76a7.57,7.57,0,0,0,2.74-.46A5.31,5.31,0,0,0,302.06,38a2.15,2.15,0,0,0,.56-1.37,2.38,2.38,0,0,0-1.07-1.85,4.9,4.9,0,0,0-3.12-.85h-4.05Z"/>
              <path class="cls-4" d="M327.33,33.9V47.72h3.57a2.73,2.73,0,0,1,1.82.49,1.67,1.67,0,0,1,.54,1.29,1.62,1.62,0,0,1-.54,1.26,2.68,2.68,0,0,1-1.82.5H320.23a2.69,2.69,0,0,1-1.82-.5,1.78,1.78,0,0,1,0-2.55,2.75,2.75,0,0,1,1.82-.49h3.57V33.9h-3.57a2.75,2.75,0,0,1-1.82-.49,1.67,1.67,0,0,1-.54-1.29,1.65,1.65,0,0,1,.54-1.28,2.7,2.7,0,0,1,1.82-.49l10.67,0a2.74,2.74,0,0,1,1.82.48,1.61,1.61,0,0,1,.54,1.27,1.67,1.67,0,0,1-.54,1.29,2.73,2.73,0,0,1-1.82.49Z"/>
              <path class="cls-4" d="M358.65,31.26a2.24,2.24,0,0,1,.71-.67,1.65,1.65,0,0,1,.84-.22,1.61,1.61,0,0,1,1.26.53,2.65,2.65,0,0,1,.5,1.81v3a2.69,2.69,0,0,1-.5,1.82,1.62,1.62,0,0,1-1.26.54,1.6,1.6,0,0,1-1.14-.4,2.66,2.66,0,0,1-.64-1.48,2.18,2.18,0,0,0-.48-1.12,4.87,4.87,0,0,0-2-1.24,7.41,7.41,0,0,0-2.55-.47,6.24,6.24,0,0,0-2.91.69,6.37,6.37,0,0,0-2.34,2.24,6.59,6.59,0,0,0-1,3.69v2.3A5.54,5.54,0,0,0,349,46.53a7.31,7.31,0,0,0,5.15,1.71,9,9,0,0,0,3.32-.54,4.88,4.88,0,0,0,1.69-1.22,4.06,4.06,0,0,1,.87-.71,1.45,1.45,0,0,1,.7-.17,1.85,1.85,0,0,1,1.78,1.79,2.43,2.43,0,0,1-.73,1.56,7.22,7.22,0,0,1-2.7,1.89,12.65,12.65,0,0,1-4.92.93,12.21,12.21,0,0,1-5.65-1.29,9,9,0,0,1-3.46-3.27,8.77,8.77,0,0,1-1.43-4.87V40a10.68,10.68,0,0,1,1.28-5.15,9.15,9.15,0,0,1,3.56-3.68,9.63,9.63,0,0,1,4.83-1.29,11.51,11.51,0,0,1,2.87.35A9.21,9.21,0,0,1,358.65,31.26Z"/>
              <path class="cls-4" d="M385,45.57h-8.58l-.87,2.15h.87a2.75,2.75,0,0,1,1.82.49,1.67,1.67,0,0,1,.54,1.29,1.62,1.62,0,0,1-.54,1.26,2.69,2.69,0,0,1-1.82.5h-4.76a2.68,2.68,0,0,1-1.82-.5,1.77,1.77,0,0,1,0-2.57,2.69,2.69,0,0,1,1.88-.47l5.55-13.82H375a2.73,2.73,0,0,1-1.82-.49,1.68,1.68,0,0,1-.55-1.29,1.66,1.66,0,0,1,.55-1.28,2.68,2.68,0,0,1,1.82-.49l7.63,0,7,17.35a3.13,3.13,0,0,1,1.64.28,1.76,1.76,0,0,1,.79,1.5,1.61,1.61,0,0,1-.53,1.26,2.65,2.65,0,0,1-1.81.5h-4.76a2.69,2.69,0,0,1-1.82-.5,1.78,1.78,0,0,1,0-2.55,2.75,2.75,0,0,1,1.82-.49h.86ZM383.5,42l-2.85-7-2.86,7Z"/>
            </g>
            <g>
              <circle class="cls-4" cx="228.82" cy="41.07" r="2.5"/>
              <circle class="cls-4" cx="256.25" cy="41.19" r="2.5"/>
              <circle class="cls-4" cx="283.67" cy="40.96" r="2.5"/>
              <circle class="cls-4" cx="311.09" cy="41.19" r="2.5"/>
              <circle class="cls-4" cx="338.52" cy="41.3" r="2.5"/>
              <circle class="cls-4" cx="365.95" cy="41.07" r="2.5"/>
            </g>
          </g>
        </g>
      </g>
    </g>
  </g>
</svg>
